<svg width="22" height="18" viewBox="0 0 22 18" fill="none" xmlns="http://www.w3.org/2000/svg">
<path d="M21.0038 0.75H1.50385C1.089 0.75 0.753845 1.08516 0.753845 1.5V16.5C0.753845 16.9148 1.089 17.25 1.50385 17.25H21.0038C21.4187 17.25 21.7538 16.9148 21.7538 16.5V1.5C21.7538 1.08516 21.4187 0.75 21.0038 0.75ZM20.0663 3.34687V15.5625H2.44135V3.34687L1.79447 2.84297L2.71556 1.65938L3.71869 2.43984H18.7913L19.7945 1.65938L20.7156 2.84297L20.0663 3.34687ZM18.7913 2.4375L11.2538 8.29688L3.71635 2.4375L2.71322 1.65703L1.79213 2.84062L2.439 3.34453L10.4453 9.56953C10.6755 9.74841 10.9588 9.84551 11.2503 9.84551C11.5419 9.84551 11.8252 9.74841 12.0554 9.56953L20.0663 3.34687L20.7132 2.84297L19.7921 1.65938L18.7913 2.4375Z" fill="#8F95B2"/>
</svg>
