<svg width="26" height="26" viewBox="0 0 26 26" fill="none" xmlns="http://www.w3.org/2000/svg">
<path d="M25.4881 13.2393C25.4881 12.1911 25.403 11.4262 25.2189 10.6329H13.249V15.3642H20.2751C20.1335 16.5399 19.3686 18.3106 17.6687 19.5005L17.6448 19.6589L21.4295 22.5908L21.6917 22.617C24.0998 20.393 25.4881 17.1207 25.4881 13.2393Z" fill="#4285F4"/>
<path d="M13.249 25.7051C16.6912 25.7051 19.581 24.5718 21.6917 22.617L17.6687 19.5005C16.5921 20.2513 15.1472 20.7754 13.249 20.7754C9.87764 20.7754 7.01621 18.5515 5.99619 15.4775L5.84668 15.4902L1.91133 18.5358L1.85986 18.6789C3.95635 22.8436 8.2627 25.7051 13.249 25.7051Z" fill="#34A853"/>
<path d="M5.99619 15.4775C5.72705 14.6843 5.57129 13.8343 5.57129 12.956C5.57129 12.0777 5.72705 11.2278 5.98203 10.4346L5.9749 10.2656L1.99023 7.17108L1.85986 7.23309C0.995801 8.96132 0.5 10.902 0.5 12.956C0.5 15.01 0.995801 16.9507 1.85986 18.6789L5.99619 15.4775Z" fill="#FBBC05"/>
<path d="M13.249 5.13662C15.643 5.13662 17.2578 6.1707 18.1786 7.03486L21.7767 3.52178C19.5669 1.46777 16.6912 0.207031 13.249 0.207031C8.26269 0.207031 3.95635 3.06846 1.85986 7.23311L5.98203 10.4346C7.01621 7.36064 9.87764 5.13662 13.249 5.13662Z" fill="#EB4335"/>
</svg>
