<svg width="17" height="20" viewBox="0 0 17 20" fill="none" xmlns="http://www.w3.org/2000/svg">
<path d="M15.7538 8.875H14.1601V3.625C14.1601 1.96797 12.8171 0.625 11.1601 0.625H5.3476C3.69056 0.625 2.3476 1.96797 2.3476 3.625V8.875H0.753845C0.339001 8.875 0.00384521 9.21016 0.00384521 9.625V18.625C0.00384521 19.0398 0.339001 19.375 0.753845 19.375H15.7538C16.1687 19.375 16.5038 19.0398 16.5038 18.625V9.625C16.5038 9.21016 16.1687 8.875 15.7538 8.875ZM4.0351 3.625C4.0351 2.90078 4.62338 2.3125 5.3476 2.3125H11.1601C11.8843 2.3125 12.4726 2.90078 12.4726 3.625V8.875H4.0351V3.625ZM14.8163 17.6875H1.69135V10.5625H14.8163V17.6875ZM7.5976 14.4297V15.6719C7.5976 15.775 7.68197 15.8594 7.7851 15.8594H8.7226C8.82572 15.8594 8.9101 15.775 8.9101 15.6719V14.4297C9.10356 14.2908 9.24797 14.0941 9.32253 13.8679C9.39708 13.6417 9.39794 13.3977 9.32498 13.1709C9.25202 12.9442 9.10901 12.7465 8.91652 12.6062C8.72404 12.466 8.49201 12.3904 8.25385 12.3904C8.01568 12.3904 7.78365 12.466 7.59117 12.6062C7.39868 12.7465 7.25567 12.9442 7.18271 13.1709C7.10975 13.3977 7.11061 13.6417 7.18516 13.8679C7.25972 14.0941 7.40413 14.2908 7.5976 14.4297Z" fill="#8F95B2"/>
</svg>
